<svg xmlns="http://www.w3.org/2000/svg" xmlns:xlink="http://www.w3.org/1999/xlink" aria-hidden="true" width="23" height="18" viewBox="0 0 23 18" class="css-zd9juy"><path d="M1.357 17.192a.663.663 0 0 1-.642-.81c1.82-7.955 6.197-12.068 12.331-11.68V1.127a.779.779 0 0 1 .42-.653.726.726 0 0 1 .78.106l8.195 6.986a.81.81 0 0 1 .253.557.82.82 0 0 1-.263.547l-8.196 6.955a.83.83 0 0 1-.779.105.747.747 0 0 1-.42-.663V11.29c-8.418-.905-10.974 5.177-11.08 5.45a.662.662 0 0 1-.6.453Zm10.048-7.26a16.37 16.37 0 0 1 2.314.158.81.81 0 0 1 .642.726v3.02l6.702-5.682-6.702-5.692v2.883a.767.767 0 0 1-.242.536.747.747 0 0 1-.547.18c-4.808-.537-8.364 1.85-10.448 6.922a11.679 11.679 0 0 1 8.28-3.093v.042Z" fill="#000" fill-rule="nonzero"></path></svg>